<?xml version="1.0" encoding="utf-8"?>
<!-- Generator: Adobe Illustrator 23.0.3, SVG Export Plug-In . SVG Version: 6.00 Build 0)  -->
<svg version="1.1" id="Layer_1" xmlns="http://www.w3.org/2000/svg" xmlns:xlink="http://www.w3.org/1999/xlink" x="0px" y="0px"
	 viewBox="0 0 512 512" style="enable-background:new 0 0 512 512;" xml:space="preserve">
<style type="text/css">
	.st0{fill:#000966;}
</style>
<g>
	<g>
		<path class="st0" d="M413.2,156.3c0,50.7-41.3,92-92,92h-57.5V208l17.3,17.3h32.5l-48.7-48.7c1.4-8.8,4-17.1,7.6-24.9l70.2,70.2
			c7.8-2.5,14.9-6.4,21.2-11.4l-78.7-78.7c4.9-5.9,10.6-11.2,16.8-15.7l77.3,77.3c4.5-6.9,7.7-14.7,9.5-23.1L323,104.6
			c10.1-3.9,21.1-6,32.6-6v-23c-63.4,0-115,51.6-115,115v53.7h-52.1c-62.2,0-112.7,50.6-112.7,112.7h23c0-49.5,40.2-89.7,89.7-89.7
			h56V308l-17.7-17.7h-32.5l48.8,48.8c-1.5,8.6-4.3,16.8-8.1,24.4l-69.2-69.2c-7.6,2.8-14.5,6.9-20.5,12l76.6,76.6
			c-5.1,5.8-11,10.8-17.4,15.1l-73.9-73.9c-4.2,7.4-7,15.6-8.2,24.4l60.1,60.1c-8.7,2.8-18,4.4-27.7,4.4v23
			c42.4,0,79.4-23.5,98.6-58.1c0.9-1.6,1.8-3.3,2.6-5c-4.5-5.2-13.5-12.2-14-12.5c-2.7-1.6,0.5-7.9,0.5-7.9s1.9-3.1,3.6-4.5
			c2.3-1.8,1.7-2.3,9-1.7c0.9,0.1,9.8,0.8,10-0.1c1.7-7.7,2.3-14.7,2.3-22.8v-52.1h53.7c63.4,0,115-51.6,115-115L413.2,156.3
			L413.2,156.3z"/>
	</g>
</g>
<path class="st0" d="M287.2,354.9l39.4-1.4c3.6-0.1,6.5-3.2,6.3-6.8c-0.1-3.6-3.2-6.5-6.8-6.3l-39.4,1.4c-3.6,0.1-6.5,3.2-6.3,6.8
	C280.5,352.2,283.5,355.1,287.2,354.9z"/>
<path class="st0" d="M301.7,412.2L275.3,383c-2.4-2.7-6.6-2.9-9.3-0.5c-2.7,2.4-2.9,6.6-0.5,9.3l26.4,29.2c2.5,2.7,6.6,2.9,9.3,0.5
	C303.9,419.1,304.1,414.9,301.7,412.2z"/>
<path class="st0" d="M323.2,379.6l-36.3-15.4c-3.3-1.4-7.2,0.1-8.6,3.5s0.1,7.2,3.5,8.6l36.3,15.4c3.3,1.4,7.2-0.1,8.6-3.5
	C328.1,384.9,326.5,381,323.2,379.6z"/>
</svg>
