<?xml version="1.0" encoding="utf-8"?>
<!-- Generator: Adobe Illustrator 21.0.0, SVG Export Plug-In . SVG Version: 6.00 Build 0)  -->
<svg version="1.1" id="ServicioAndaluzDeSalud" xmlns="http://www.w3.org/2000/svg" xmlns:xlink="http://www.w3.org/1999/xlink" x="0px" y="0px"
	 viewBox="0 0 1146.1 393.1" style="enable-background:new 0 0 1146.1 393.1;" xml:space="preserve">
<style type="text/css">
	.st0{fill:#00843D;}
	.st1{fill:#FFFFFF;}
</style>
<g>
	<g>
		<rect x="32.5" y="28.5" class="st0" width="348.6" height="336.1"/>
		<g>
			<path class="st1" d="M51.3,297.8c0,3.9,3.2,7,7,7s7-3.2,7-7v-22.4h-7v4h3.1v18.5c0,1.7-1.4,3.1-3.1,3.1c-1.7,0-3.1-1.4-3.1-3.1
				L51.3,297.8C51.3,297.9,51.3,297.8,51.3,297.8z"/>
			<path class="st1" d="M81.6,275.4v22.4c0,1.7-1.4,3.1-3.1,3.1c-1.7,0-3.1-1.4-3.1-3.1v-22.4h-7v4h3.1v18.5c0,3.9,3.2,7,7,7
				c3.9,0,7-3.2,7-7v-22.4L81.6,275.4L81.6,275.4z"/>
			<polygon class="st1" points="101.8,289.3 95.7,281.7 95.7,304.9 91.7,304.9 91.7,279.3 88.6,279.3 88.6,275.4 95.7,275.4 
				101.8,283.1 101.8,275.4 105.7,275.4 105.7,304.9 101.8,304.9 			"/>
			<polygon class="st1" points="116.7,304.9 116.7,279.3 120.7,279.3 120.7,275.4 108.8,275.4 108.8,279.3 112.8,279.3 112.8,304.9 
							"/>
			<path class="st1" d="M123.8,279.3v-4h9.2c2.3,0,4.1,1.6,4.4,3.9l4,25.6h-4l-1.9-12.4h-5.8l-1.9,12.4h-4l4-25.5H123.8L123.8,279.3
				z M131.7,279.3l-1.5,9.2h4.6l-1.3-8.7c-0.1-0.3-0.3-0.5-0.6-0.5H131.7L131.7,279.3z"/>
			<polygon class="st1" points="175.7,275.4 175.7,279.3 178.8,279.3 178.8,304.8 191.5,304.8 190.7,300.9 182.8,300.9 182.8,292.5 
				186.7,292.5 186.7,288.5 182.8,288.5 182.8,279.3 190.7,279.3 190.7,275.4 			"/>
			<path class="st1" d="M164.7,300.9v-21.5h3.2c1.7,0,3,1.4,3,3.1v15.4c0,1.7-1.4,3.1-3.1,3.1L164.7,300.9L164.7,300.9z
				 M167.8,304.8c3.9,0,6.9-3.2,6.9-7v-15.4c0-3.9-3.2-7-7-7h-10.1v4h3.1v25.5L167.8,304.8L167.8,304.8z"/>
			<path class="st1" d="M344.8,279.3v-4h9.2c2.3,0,4.1,1.6,4.4,3.9l4,25.6h-4l-1.9-12.4h-5.8l-1.9,12.4h-4l4-25.5H344.8L344.8,279.3
				z M352.8,279.3l-1.5,9.2h4.6l-1.3-8.7c-0.1-0.3-0.3-0.5-0.6-0.5H352.8L352.8,279.3z"/>
			<polygon class="st1" points="239.6,289.3 233.4,281.7 233.4,304.9 229.5,304.9 229.5,279.3 226.4,279.3 226.4,275.4 233.4,275.4 
				239.6,283.1 239.6,275.4 243.5,275.4 243.5,304.9 239.6,304.9 			"/>
			<path class="st1" d="M207.7,279.3v-4h9.2c2.3,0,4.1,1.6,4.4,3.9l4,25.6h-4l-1.9-12.4h-5.8l-1.9,12.4h-4l4-25.5H207.7L207.7,279.3
				z M215.7,279.3l-1.5,9.2h4.6l-1.3-8.7c-0.1-0.3-0.3-0.5-0.6-0.5H215.7L215.7,279.3z"/>
			<path class="st1" d="M256.8,304.8c3.9,0,6.9-3.2,6.9-7v-15.4c0-3.9-3.2-7-7-7h-10.1v4h3.1v25.5L256.8,304.8L256.8,304.8z
				 M253.7,300.9v-21.5h3.2c1.7,0,3,1.4,3,3.1v15.4c0,1.7-1.4,3.1-3.1,3.1L253.7,300.9L253.7,300.9z"/>
			<path class="st1" d="M268,279.4v-4h9.2c2.3,0,4.1,1.6,4.4,3.9l4,25.6h-4l-1.9-12.4h-5.8l-1.9,12.4h-4l4-25.5H268L268,279.4z
				 M275.9,279.4l-1.5,9.2h4.6l-1.3-8.7c-0.1-0.3-0.3-0.5-0.6-0.5H275.9L275.9,279.4z"/>
			<path class="st1" d="M313,275.4v22.4c0,1.7-1.4,3.1-3.1,3.1c-1.7,0-3.1-1.4-3.1-3.1v-22.4h-7.1v4h3.1v18.5c0,3.9,3.2,7,7,7
				c3.9,0,7-3.2,7-7v-22.4L313,275.4L313,275.4z"/>
			<path class="st1" d="M330.5,279.3h-3.2c-1.7,0-3,1.4-3,3.1v15.4c0,1.7,1.4,3.1,3.1,3.1h3.1l0.8,4h-4c-3.9,0-6.9-3.2-6.9-7v-15.4
				c0-3.9,3.2-7,7-7h3L330.5,279.3L330.5,279.3z"/>
			<polygon class="st1" points="340.7,304.8 340.7,275.4 333.6,275.4 333.6,279.3 336.7,279.3 336.7,304.8 			"/>
			<polygon class="st1" points="286.5,275.4 286.5,279.3 289.6,279.3 289.6,304.8 302.2,304.8 301.4,300.9 293.5,300.9 293.5,279.3 
				293.5,279.3 293.5,275.4 			"/>
			<path class="st1" d="M206.9,110.3c48.1,0.1,96.1,18.5,132.8,55.2c8.6,8.6,16.1,17.7,22.7,27.4c-8.2-20.8-20.7-40.4-37.5-57.2
				c-32.6-32.6-75.3-48.9-118.1-49.1c-42.8,0.1-85.5,16.5-118.1,49.1c-16.9,16.9-29.3,36.3-37.5,57.2c6.6-9.6,14.1-18.8,22.7-27.4
				C110.7,128.8,158.8,110.4,206.9,110.3L206.9,110.3z"/>
			<polygon class="st1" points="228.5,251.9 185.2,251.9 206.8,181.1 			"/>
			<path class="st1" d="M206.9,157.6c37.4,0.1,74.7,14.4,103.2,42.9c5.4,5.4,10.3,11.1,14.6,17c-6.1-17.1-15.8-33.2-29.5-46.8
				c-24.4-24.4-56.4-36.7-88.4-36.8c-32,0.1-64,12.4-88.4,36.8c-13.7,13.7-23.4,29.8-29.5,46.8c4.4-6,9.3-11.7,14.6-17
				C132.1,172,169.5,157.7,206.9,157.6L206.9,157.6z"/>
		</g>
	</g>
	<g>
		<path class="st0" d="M458.7,224.7c-0.1-2.2-0.2-4.1-0.4-5.8c2,1.2,3.8,2,5.4,2.5c1.6,0.5,3.2,0.7,4.6,0.7c1.4,0,2.8-0.3,4-0.9
			c1.2-0.6,2.2-1.4,2.8-2.5c0.6-1.1,0.9-2.3,0.9-3.7c0-0.8-0.1-1.6-0.3-2.3c-0.2-0.7-0.5-1.4-1-2.2c-0.5-0.7-1.3-1.7-2.4-3
			c-1.2-1.2-2.8-3-4.9-5.2l-2.1-2.2c-0.8-0.8-1.5-1.7-2.2-2.5c-0.6-0.8-1.2-1.6-1.6-2.4c-0.4-0.8-0.8-1.4-1-2.1
			c-0.2-0.6-0.4-1.3-0.6-2.1s-0.2-1.5-0.2-2.3c0-2,0.4-3.9,1.3-5.6s2.2-3.1,4-4.2c1.8-1,4.2-1.6,7.1-1.6c2.1,0,4.7,0.3,7.8,1
			c0,1.5,0.2,3.3,0.4,5.5c-2.9-1.3-5.6-1.9-8-1.9c-1.6,0-3,0.3-4.1,1c-1.1,0.7-1.9,1.5-2.5,2.5c-0.6,1-0.9,2.1-0.9,3.2
			c0,0.7,0.1,1.3,0.2,1.9c0.2,0.6,0.4,1.2,0.7,1.8c0.4,0.8,1,1.6,1.6,2.5c0.6,0.8,1.5,1.8,2.7,3c0.3,0.3,1.4,1.4,3.3,3.3
			c1.9,1.9,3.3,3.4,4.1,4.4c0.9,1,1.6,2,2.1,2.9c0.5,0.9,0.9,1.9,1.2,2.9c0.3,1,0.4,2.2,0.4,3.4c0,1.9-0.3,3.6-1,5.1
			c-0.7,1.6-1.6,2.9-2.8,3.9c-1.2,1-2.6,1.7-4.1,2.1c-1.5,0.4-3.1,0.6-4.7,0.6c-1.3,0-2.7-0.1-4.1-0.4
			C463.3,226.1,461.3,225.6,458.7,224.7z"/>
		<path class="st0" d="M510,220.4c-0.2,1.3-0.5,2.9-0.7,4.9c-1.8,0.6-3.4,0.9-4.8,1.1c-1.3,0.2-2.7,0.3-4,0.3c-2.4,0-4.5-0.3-6.4-1
			s-3.5-1.9-4.9-3.6c-1.4-1.7-2.3-3.7-2.9-6c-0.6-2.2-0.9-4.6-0.9-7.1c0-3.5,0.5-6.7,1.6-9.7c1.1-3,2.7-5.3,4.9-7
			c2.2-1.7,5-2.5,8.3-2.5c1.7,0,3.4,0.3,5,0.9c1.6,0.6,2.9,1.6,3.9,2.8c1,1.3,1.9,2.8,2.4,4.7c0.6,1.9,0.9,3.9,0.9,6.1
			c0,0.8-0.1,1.7-0.2,2.4h-21.8c-0.1,1.3-0.1,2.3-0.1,2.9c0,2.4,0.4,4.7,1.3,6.8c0.8,2.1,2.1,3.6,3.7,4.7c1.6,1.1,3.5,1.6,5.7,1.6
			C503.5,222.7,506.5,221.9,510,220.4z M490.7,203.8h17c0-1.5-0.1-2.6-0.2-3.4c-0.1-0.8-0.4-1.7-0.7-2.5c-0.4-0.9-0.9-1.6-1.5-2.3
			c-0.6-0.6-1.4-1.1-2.2-1.5c-0.9-0.3-1.8-0.5-2.8-0.5c-1.1,0-2.1,0.2-3.1,0.6c-1,0.4-1.9,0.9-2.6,1.5s-1.4,1.4-1.9,2.3
			c-0.5,0.9-0.9,1.7-1.2,2.5C491.2,201.3,491,202.4,490.7,203.8z"/>
		<path class="st0" d="M516.1,226c0.7-13.4,1-24.2,1-32.2l0-3.2c1,0,1.8,0,2.4,0c0.7,0,1.5,0,2.4,0l-0.2,5.8
			c0.7-1.4,1.3-2.5,1.9-3.3c0.5-0.7,1.2-1.3,1.8-1.8s1.5-0.8,2.3-1.1c0.9-0.3,1.8-0.4,2.7-0.4c0.8,0,1.6,0.1,2.4,0.3
			c0,1.5,0.1,3.3,0.2,5.2c-1.2-0.4-2.2-0.6-3.2-0.6c-1.1,0-2.1,0.2-3,0.7c-0.9,0.5-1.7,1.1-2.4,2.1c-0.7,0.9-1.3,2-1.8,3.3
			c-0.4,1-0.7,2.4-0.9,4c-0.2,1.6-0.4,4.6-0.5,8.9c-0.1,3.1-0.1,6.5-0.1,10v2.3c-1,0-1.9-0.1-2.5-0.1
			C518.1,225.9,517.2,225.9,516.1,226z"/>
		<path class="st0" d="M547.6,226l-1-3.5c-0.3-1.1-1.1-3.7-2.3-7.8l-7.2-24.1c1.2,0,2.1,0,2.7,0c0.7,0,1.6,0,2.6,0l0.6,2.4
			c0.2,0.7,0.5,1.8,0.9,3.4l6.7,24.3l9.1-26.7l1.1-3.5c1.1,0,2,0,2.7,0c0.7,0,1.6,0,2.7,0l-3.7,9.7l-7.5,20.3l-1.8,5.3
			c-1.2,0-2.1-0.1-2.8-0.1C549.7,225.9,548.8,225.9,547.6,226z"/>
		<path class="st0" d="M569,226l0.5-8.8l0.6-15l0.2-11.6l2.6,0l2.6,0c-0.2,3.6-0.4,7.4-0.6,11.4c-0.2,4-0.3,8.3-0.4,13
			c-0.1,4.7-0.2,8.4-0.2,11c-1.2,0-2.1-0.1-2.6-0.1C571.3,225.9,570.4,225.9,569,226z M570.4,183c0.1-2.2,0.1-3.8,0.1-5
			c1,0,2,0.1,2.8,0.1c1,0,1.9,0,2.7-0.1c0,0.7-0.1,2.4-0.2,5c-1,0-1.9,0-2.7,0C572.4,183,571.5,183,570.4,183z"/>
		<path class="st0" d="M603.6,220.7c0,0.4-0.1,1.1-0.3,2.1c-0.2,1-0.3,2-0.4,3c-1.4,0.4-2.7,0.7-4,0.8c-1.3,0.1-2.4,0.2-3.4,0.2
			c-2.1,0-4-0.3-5.7-1c-1.7-0.7-3.3-1.8-4.6-3.3c-1.3-1.5-2.3-3.5-2.9-5.8c-0.6-2.3-0.9-4.7-0.9-7.2c0-3.4,0.5-6.7,1.5-9.7
			c1-3.1,2.6-5.5,4.7-7.2c2.1-1.7,5-2.6,8.7-2.6c2.7,0,5.3,0.4,7.9,1.3c0.1,2,0.2,3.6,0.3,4.9c-1.8-0.7-3.3-1.2-4.4-1.4
			c-1.1-0.2-2.2-0.4-3.2-0.4c-1.7,0-3.2,0.4-4.5,1.1c-1.3,0.7-2.5,1.8-3.4,3.2c-0.9,1.4-1.6,3-2,4.9c-0.4,1.9-0.6,3.8-0.6,5.8
			c0,2.6,0.3,4.9,1,6.9c0.7,2,1.8,3.5,3.5,4.6c1.7,1.1,3.5,1.6,5.6,1.6C598.6,222.3,601,221.8,603.6,220.7z"/>
		<path class="st0" d="M608.9,226l0.5-8.8l0.6-15l0.2-11.6l2.6,0l2.6,0c-0.2,3.6-0.4,7.4-0.6,11.4c-0.2,4-0.3,8.3-0.4,13
			c-0.1,4.7-0.2,8.4-0.2,11c-1.2,0-2.1-0.1-2.6-0.1C611.2,225.9,610.3,225.9,608.9,226z M610.2,183c0.1-2.2,0.1-3.8,0.1-5
			c1,0,2,0.1,2.8,0.1c1,0,1.9,0,2.7-0.1c0,0.7-0.1,2.4-0.2,5c-1,0-1.9,0-2.7,0S611.3,183,610.2,183z"/>
		<path class="st0" d="M636.6,189.8c2,0,3.9,0.3,5.7,1c1.8,0.7,3.4,1.8,4.7,3.3c1.3,1.5,2.3,3.4,3,5.7c0.7,2.3,1,4.7,1,7.3
			c0,2.8-0.4,5.4-1.1,8c-0.7,2.5-1.8,4.7-3.1,6.5c-1.3,1.8-2.9,3.1-4.9,3.9c-1.9,0.8-4,1.2-6.2,1.2c-2,0-4-0.4-5.8-1.1
			c-1.8-0.7-3.4-1.9-4.7-3.5c-1.3-1.6-2.3-3.5-3-5.8c-0.7-2.3-1-4.7-1-7.2c0-3.8,0.6-7.2,1.9-10.2c1.3-3,3.1-5.3,5.5-6.8
			C631.2,190.6,633.8,189.8,636.6,189.8z M636.5,194.2c-1.9,0-3.7,0.6-5.4,1.8c-1.6,1.2-2.8,3-3.6,5.4c-0.8,2.4-1.2,5-1.2,7.8
			c0,2.5,0.3,4.7,1,6.7c0.6,2,1.7,3.6,3.2,4.8c1.5,1.2,3.3,1.8,5.4,1.8c1.4,0,2.8-0.3,4.1-0.9c1.3-0.6,2.4-1.6,3.3-3
			c1-1.4,1.7-3.1,2.1-5c0.5-2,0.7-4.1,0.7-6.3c0-2-0.2-4-0.7-5.8c-0.5-1.8-1.2-3.2-2.1-4.3c-0.9-1.1-2-1.8-3.2-2.3
			C638.9,194.5,637.7,194.2,636.5,194.2z"/>
		<path class="st0" d="M667.2,226l5.2-12l13.3-31.7l1.5-4l3.3,0c1,0,2.1,0,3.3,0l4.9,17.1L708,226l-2.7-0.1c-0.5,0-1.5,0-3.1,0.1
			c-0.5-2.2-1.4-5.5-2.6-9.7c-1.2-4.2-2.2-7.7-3-10.3H681l-4.1,10.4l-3.7,9.6l-2.9-0.1C669.8,225.9,668.8,225.9,667.2,226z
			 M682.7,201.4h12.9l-5.3-18.5L682.7,201.4z"/>
		<path class="st0" d="M709.1,226c0.9-14.6,1.4-26.4,1.4-35.4l2.6,0c0.6,0,1.5,0,2.5,0l-0.4,7c0.5-1,0.9-1.7,1.1-2.3
			c0.3-0.5,0.7-1.1,1.1-1.7c0.5-0.6,1-1.1,1.7-1.6c0.6-0.5,1.4-0.9,2.3-1.3c0.9-0.3,1.8-0.6,2.7-0.8c0.9-0.2,1.8-0.2,2.7-0.2
			c1.6,0,3.2,0.2,4.8,0.7c1.5,0.5,2.8,1.3,3.8,2.4c1,1.1,1.6,2.3,2,3.7c0.3,1.4,0.5,2.9,0.5,4.4c0,0.3,0,0.9,0,1.7
			c0,0.9-0.1,2-0.1,3.4l-0.6,14.6c0,1.4-0.1,3.1-0.1,5.1c-0.9,0-1.7-0.1-2.4-0.1c-0.9,0-1.8,0-2.6,0.1c0.2-2.8,0.3-5.5,0.4-8.1
			l0.4-8.1c0.1-2.8,0.2-4.9,0.2-6.3c0-2-0.3-3.7-0.9-4.9c-0.6-1.2-1.5-2.2-2.8-2.8c-1.3-0.7-2.7-1-4.2-1c-2.2,0-4.1,0.6-5.7,1.9
			c-1.5,1.2-2.6,2.9-3.4,5.1c-0.6,1.6-0.9,3.9-1.2,6.9c-0.3,3.7-0.5,9.5-0.6,17.4c-1.1,0-1.9-0.1-2.5-0.1S710.3,225.9,709.1,226z"/>
		<path class="st0" d="M771.1,226.1c-1.1,0-1.9-0.1-2.3-0.1c-0.5,0-1.3,0-2.5,0l0.3-7.5c-0.6,1.3-1.1,2.3-1.6,3
			c-0.4,0.7-1,1.4-1.6,2c-0.6,0.6-1.3,1.2-2.1,1.7c-0.8,0.5-1.7,0.9-2.6,1.2c-1,0.3-2,0.4-3.1,0.4c-1.8,0-3.6-0.4-5.2-1.2
			c-1.6-0.8-3-2-4.1-3.5c-1.1-1.5-1.9-3.3-2.4-5.3c-0.5-2-0.7-4.1-0.7-6.3c0-2.9,0.5-5.8,1.4-8.7c0.9-2.8,2.3-5.2,4-7
			c1.7-1.9,3.6-3.1,5.8-3.9c2.2-0.7,4.4-1.1,6.9-1.1c1.7,0,3.7,0.2,6,0.7c0.1-2.5,0.1-4.6,0.1-6.3c0-2.4,0-4.4,0-5.9l2.6,0
			c0.6,0,1.5,0,2.6,0l-0.8,19.7l-0.6,22.6V226.1z M766.9,194.9c-1.1-0.4-2.1-0.7-2.9-0.8c-0.8-0.1-1.6-0.2-2.4-0.2
			c-1.8,0-3.6,0.3-5.2,1c-1.7,0.6-3.1,1.7-4.4,3.2c-1.3,1.5-2.2,3.3-2.9,5.6c-0.7,2.3-1,4.5-1,6.6c0,2.2,0.3,4.2,1,6.1
			c0.6,1.9,1.7,3.3,3,4.4c1.4,1.1,3,1.6,4.8,1.6c1.1,0,2.1-0.2,3-0.5c0.9-0.4,1.7-0.9,2.4-1.6s1.4-1.6,2.1-2.8s1.2-2.6,1.5-4.1
			c0.3-1.4,0.6-3.2,0.7-5.6c0.1-1.1,0.2-3.3,0.3-6.6L766.9,194.9z"/>
		<path class="st0" d="M779.5,196.2c0.2-1,0.4-2.5,0.5-4.5c2.3-0.7,4.3-1.2,6-1.5c1.7-0.3,3.3-0.4,4.9-0.4c1.7,0,3.3,0.2,4.8,0.6
			c1.5,0.4,2.7,1,3.7,1.9c1,0.9,1.6,1.9,2,3c0.3,1.1,0.5,2.3,0.5,3.6c0,1.6-0.1,4.3-0.3,8.1c-0.2,3.8-0.3,7.3-0.5,10.5
			c-0.1,3.2-0.2,6.1-0.2,8.6c-1,0-1.9-0.1-2.5-0.1c-0.6,0-1.5,0-2.6,0.1l0.6-9.5l0.4-11.3c-0.7,0.6-1.2,1.1-1.5,1.3
			c-0.3,0.3-0.7,0.5-1.1,0.7c-0.4,0.2-0.9,0.4-1.4,0.6c-0.5,0.2-1.5,0.5-2.9,1c-1.5,0.5-2.5,0.9-3.1,1.1c-1.3,0.5-2.4,1-3.1,1.5
			c-0.8,0.5-1.4,1.1-1.9,1.7c-0.5,0.6-0.9,1.2-1.1,1.8c-0.2,0.7-0.4,1.5-0.4,2.3c0,1.3,0.3,2.4,0.9,3.3s1.4,1.6,2.3,1.9
			c0.9,0.4,2,0.5,3.3,0.5c0.8,0,1.6-0.1,2.5-0.2c0.9-0.1,2.1-0.5,3.5-1.1c-0.3,0.9-0.6,2.3-0.9,4.2c-1.4,0.3-2.5,0.5-3.4,0.6
			c-0.9,0.1-1.7,0.1-2.5,0.1c-2.6,0-4.7-0.4-6.1-1.1s-2.6-1.9-3.3-3.4c-0.7-1.5-1.1-3.2-1.1-5c0-1,0.1-2,0.4-2.9
			c0.3-0.9,0.6-1.7,1-2.4c0.4-0.7,1.1-1.4,1.9-2.2c0.8-0.7,1.7-1.3,2.5-1.8c0.9-0.5,1.9-0.9,3.1-1.4c1.2-0.5,3.1-1.1,5.7-1.8
			c0.8-0.2,1.6-0.5,2.1-0.7c0.6-0.2,1.1-0.5,1.6-0.7c0.5-0.2,0.9-0.5,1.2-0.8c0.3-0.3,0.7-0.7,0.9-1.2c0.3-0.5,0.5-0.9,0.6-1.4
			c0.1-0.5,0.2-0.9,0.2-1.4c0-1.1-0.3-2.1-0.9-2.9c-0.6-0.8-1.4-1.4-2.4-1.7c-1-0.3-2.1-0.5-3.5-0.5c-1.2,0-2.5,0.1-3.8,0.4
			c-1.3,0.2-2.4,0.5-3.4,0.9C782.1,195.1,780.9,195.6,779.5,196.2z"/>
		<path class="st0" d="M808,226c0.4-7.2,0.8-15.7,1.1-25.5c0.2-7.1,0.4-14.5,0.5-22.2l2.7,0c0.6,0,1.4,0,2.5,0l-0.9,20.5l-0.6,20.7
			l-0.1,6.4c-1.1,0-2-0.1-2.5-0.1C810.5,225.9,809.6,225.9,808,226z"/>
		<path class="st0" d="M847.4,226c-0.9,0-1.7-0.1-2.4-0.1c-0.8,0-1.6,0-2.4,0.1l0.1-6.7c-0.5,1-0.9,1.9-1.2,2.4
			c-0.3,0.6-0.7,1.1-1.2,1.7c-0.5,0.5-1,1-1.5,1.4c-0.5,0.4-1.1,0.7-1.8,1c-0.7,0.3-1.5,0.5-2.5,0.7c-0.9,0.2-2,0.3-3,0.3
			c-2.3,0-4.3-0.4-6-1.3c-1.6-0.9-2.9-2.1-3.7-3.7c-0.8-1.6-1.3-3.7-1.3-6.5c0-0.4,0-1.1,0.1-2.1c0-1,0.1-2.3,0.2-3.9l0.5-11.6
			l0.1-3.7c0-0.9,0-2,0-3.3l2.6,0c0.5,0,1.4,0,2.5,0c-0.3,4.1-0.5,8.5-0.8,13.4c-0.2,4.8-0.4,7.9-0.4,9.3c0,2,0.3,3.7,0.8,4.9
			c0.5,1.2,1.5,2.2,2.7,2.8c1.3,0.7,2.7,1,4.3,1c1.4,0,2.8-0.3,4.1-0.9c1.1-0.5,2-1.3,2.8-2.2c0.8-1,1.5-2.3,2.1-3.9
			c0.4-1.2,0.7-2.7,0.9-4.5c0.1-1.3,0.3-3.7,0.4-7.2c0.2-4.2,0.3-8.5,0.3-12.8l2.7,0c0.6,0,1.4,0,2.4,0c-0.3,4.2-0.6,10.6-0.9,19.1
			C847.6,214.4,847.5,219.8,847.4,226z"/>
		<path class="st0" d="M853.9,226c0.1-1.5,0.1-3.2,0.1-5.2l1.5-2.1c0.3-0.4,0.6-0.8,0.9-1.3l14.9-22.5c-1.8,0-3.6,0-5.6,0
			c-3.1,0-6.4,0.1-9.8,0.4c0.1-1.6,0.1-3.1,0.1-4.6c3.1,0,6.7,0,10.7,0c3.6,0,6.9,0,10,0c-0.1,0.9-0.1,1.8-0.1,2.8l-0.1,2.6
			c-0.7,1-1.4,2-2.1,3.1l-15,22.5c1.8,0.1,3.7,0.1,5.4,0.1c4.6,0,8.2-0.1,10.8-0.3c-0.1,1.3-0.2,2.8-0.3,4.5
			c-3.1,0-6.6-0.1-10.3-0.1C860.4,225.9,856.7,225.9,853.9,226z"/>
		<path class="st0" d="M924.7,226.1c-1.1,0-1.9-0.1-2.3-0.1c-0.5,0-1.3,0-2.5,0l0.3-7.5c-0.6,1.3-1.1,2.3-1.6,3
			c-0.4,0.7-1,1.4-1.6,2c-0.6,0.6-1.3,1.2-2.1,1.7c-0.8,0.5-1.7,0.9-2.6,1.2c-1,0.3-2,0.4-3.1,0.4c-1.8,0-3.6-0.4-5.2-1.2
			c-1.6-0.8-3-2-4.1-3.5c-1.1-1.5-1.9-3.3-2.4-5.3c-0.5-2-0.7-4.1-0.7-6.3c0-2.9,0.5-5.8,1.4-8.7c0.9-2.8,2.3-5.2,4-7
			c1.7-1.9,3.6-3.1,5.8-3.9c2.2-0.7,4.4-1.1,6.9-1.1c1.7,0,3.7,0.2,6,0.7c0.1-2.5,0.1-4.6,0.1-6.3c0-2.4,0-4.4,0-5.9l2.6,0
			c0.6,0,1.5,0,2.6,0l-0.8,19.7l-0.6,22.6V226.1z M920.6,194.9c-1.1-0.4-2.1-0.7-2.9-0.8c-0.8-0.1-1.6-0.2-2.4-0.2
			c-1.8,0-3.6,0.3-5.2,1c-1.7,0.6-3.1,1.7-4.4,3.2c-1.3,1.5-2.2,3.3-2.9,5.6c-0.7,2.3-1,4.5-1,6.6c0,2.2,0.3,4.2,1,6.1
			c0.6,1.9,1.7,3.3,3,4.4c1.4,1.1,3,1.6,4.8,1.6c1.1,0,2.1-0.2,3-0.5c0.9-0.4,1.7-0.9,2.4-1.6c0.7-0.7,1.4-1.6,2.1-2.8
			s1.2-2.6,1.5-4.1c0.3-1.4,0.6-3.2,0.7-5.6c0.1-1.1,0.2-3.3,0.3-6.6L920.6,194.9z"/>
		<path class="st0" d="M955,220.5c-0.2,1.3-0.5,2.9-0.7,4.9c-1.8,0.6-3.4,0.9-4.8,1.1c-1.3,0.2-2.7,0.3-4,0.3c-2.4,0-4.5-0.3-6.4-1
			c-1.9-0.7-3.5-1.9-4.9-3.6c-1.4-1.7-2.3-3.7-2.9-6c-0.6-2.2-0.9-4.6-0.9-7.1c0-3.5,0.5-6.7,1.6-9.7c1.1-3,2.7-5.3,4.9-7
			c2.2-1.7,5-2.5,8.3-2.5c1.7,0,3.4,0.3,5,0.9c1.6,0.6,2.9,1.6,3.9,2.8c1,1.3,1.9,2.8,2.4,4.7c0.6,1.9,0.9,3.9,0.9,6.1
			c0,0.8-0.1,1.7-0.2,2.4h-21.8c-0.1,1.3-0.1,2.3-0.1,2.9c0,2.4,0.4,4.7,1.3,6.8c0.8,2.1,2.1,3.6,3.7,4.7c1.6,1.1,3.5,1.6,5.7,1.6
			C948.4,222.7,951.4,221.9,955,220.5z M935.7,203.8h17c0-1.5-0.1-2.6-0.2-3.4c-0.1-0.8-0.4-1.7-0.7-2.5c-0.4-0.9-0.9-1.6-1.5-2.3
			c-0.6-0.6-1.4-1.1-2.2-1.5c-0.9-0.3-1.8-0.5-2.8-0.5c-1.1,0-2.1,0.2-3.1,0.6c-1,0.4-1.8,0.9-2.6,1.5c-0.8,0.7-1.4,1.4-1.9,2.3
			c-0.5,0.9-0.9,1.7-1.2,2.5C936.2,201.4,935.9,202.5,935.7,203.8z"/>
		<path class="st0" d="M975.8,224.7c-0.1-2.2-0.2-4.1-0.4-5.8c2,1.2,3.8,2,5.4,2.5c1.6,0.5,3.2,0.7,4.6,0.7c1.4,0,2.8-0.3,4-0.9
			c1.2-0.6,2.2-1.4,2.8-2.5c0.6-1.1,0.9-2.3,0.9-3.7c0-0.8-0.1-1.6-0.3-2.3c-0.2-0.7-0.5-1.4-1-2.2c-0.5-0.7-1.3-1.7-2.4-3
			c-1.2-1.2-2.8-3-4.9-5.2l-2.1-2.2c-0.8-0.8-1.5-1.7-2.2-2.5c-0.6-0.8-1.2-1.6-1.6-2.4c-0.4-0.8-0.8-1.4-1-2.1
			c-0.2-0.6-0.4-1.3-0.6-2.1c-0.1-0.8-0.2-1.5-0.2-2.3c0-2,0.4-3.9,1.3-5.6c0.9-1.7,2.2-3.1,4-4.2c1.8-1,4.2-1.6,7.1-1.6
			c2.1,0,4.7,0.3,7.8,1c0,1.5,0.2,3.3,0.4,5.5c-2.9-1.3-5.6-1.9-8-1.9c-1.6,0-3,0.3-4.1,1c-1.1,0.7-1.9,1.5-2.5,2.5
			c-0.6,1-0.9,2.1-0.9,3.2c0,0.7,0.1,1.3,0.2,1.9c0.2,0.6,0.4,1.2,0.7,1.8c0.4,0.8,1,1.6,1.6,2.5c0.6,0.8,1.5,1.8,2.7,3
			c0.3,0.3,1.4,1.4,3.3,3.3c1.9,1.9,3.3,3.4,4.1,4.4c0.9,1,1.6,2,2.1,2.9c0.5,0.9,0.9,1.9,1.2,2.9c0.3,1,0.4,2.2,0.4,3.4
			c0,1.9-0.3,3.6-1,5.1c-0.7,1.6-1.6,2.9-2.8,3.9c-1.2,1-2.6,1.7-4.1,2.1c-1.5,0.4-3.1,0.6-4.7,0.6c-1.3,0-2.7-0.1-4.1-0.4
			C980.4,226.1,978.4,225.6,975.8,224.7z"/>
		<path class="st0" d="M1006.2,196.3c0.2-1,0.4-2.5,0.5-4.5c2.3-0.7,4.3-1.2,6-1.5c1.7-0.3,3.3-0.4,4.9-0.4c1.7,0,3.3,0.2,4.8,0.6
			c1.5,0.4,2.7,1,3.7,1.9s1.6,1.9,2,3c0.3,1.1,0.5,2.3,0.5,3.6c0,1.6-0.1,4.3-0.3,8.1c-0.2,3.8-0.3,7.3-0.5,10.5
			c-0.1,3.2-0.2,6.1-0.2,8.6c-1,0-1.9-0.1-2.5-0.1c-0.6,0-1.5,0-2.6,0.1l0.6-9.5l0.4-11.3c-0.7,0.6-1.2,1.1-1.5,1.3
			c-0.3,0.3-0.7,0.5-1.1,0.7c-0.4,0.2-0.9,0.4-1.4,0.6c-0.5,0.2-1.5,0.5-2.9,1c-1.5,0.5-2.5,0.9-3.1,1.1c-1.3,0.5-2.4,1-3.1,1.5
			c-0.8,0.5-1.4,1.1-1.9,1.7c-0.5,0.6-0.9,1.2-1.1,1.8c-0.2,0.7-0.4,1.5-0.4,2.3c0,1.3,0.3,2.4,0.9,3.3c0.6,0.9,1.4,1.6,2.3,1.9
			c0.9,0.4,2,0.5,3.3,0.5c0.8,0,1.6-0.1,2.5-0.2c0.9-0.1,2.1-0.5,3.5-1.1c-0.3,0.9-0.6,2.3-0.9,4.2c-1.4,0.3-2.5,0.5-3.4,0.6
			c-0.9,0.1-1.7,0.1-2.5,0.1c-2.6,0-4.7-0.4-6.1-1.1s-2.6-1.9-3.3-3.4c-0.7-1.5-1.1-3.2-1.1-5c0-1,0.1-2,0.4-2.9
			c0.3-0.9,0.6-1.7,1-2.4c0.4-0.7,1.1-1.4,1.9-2.2c0.8-0.7,1.7-1.3,2.5-1.8c0.9-0.5,1.9-0.9,3.1-1.4c1.2-0.5,3.1-1.1,5.7-1.8
			c0.8-0.2,1.6-0.5,2.1-0.7c0.6-0.2,1.1-0.5,1.6-0.7c0.5-0.2,0.9-0.5,1.2-0.8c0.3-0.3,0.7-0.7,0.9-1.2c0.3-0.5,0.5-0.9,0.6-1.4
			c0.1-0.5,0.2-0.9,0.2-1.4c0-1.1-0.3-2.1-0.9-2.9c-0.6-0.8-1.4-1.4-2.4-1.7c-1-0.3-2.1-0.5-3.5-0.5c-1.2,0-2.5,0.1-3.8,0.4
			c-1.3,0.2-2.4,0.5-3.4,0.9C1008.8,195.1,1007.6,195.6,1006.2,196.3z"/>
		<path class="st0" d="M1035.3,226c0.4-7.2,0.8-15.7,1.1-25.5c0.2-7.1,0.4-14.5,0.5-22.2l2.7,0c0.6,0,1.4,0,2.5,0l-0.9,20.5
			l-0.6,20.7l-0.1,6.4c-1.1,0-2-0.1-2.5-0.1C1037.8,225.9,1036.9,225.9,1035.3,226z"/>
		<path class="st0" d="M1074.8,226c-0.9,0-1.7-0.1-2.4-0.1c-0.8,0-1.6,0-2.4,0.1l0.1-6.7c-0.5,1-0.9,1.9-1.2,2.4
			c-0.3,0.6-0.7,1.1-1.2,1.7c-0.5,0.5-1,1-1.5,1.4c-0.5,0.4-1.1,0.7-1.8,1c-0.7,0.3-1.5,0.5-2.5,0.7c-0.9,0.2-2,0.3-3,0.3
			c-2.3,0-4.3-0.4-6-1.3c-1.6-0.9-2.9-2.1-3.7-3.7c-0.8-1.6-1.3-3.7-1.3-6.5c0-0.4,0-1.1,0.1-2.1c0-1,0.1-2.3,0.2-3.9l0.5-11.6
			l0.1-3.7c0-0.9,0-2,0-3.3l2.6,0c0.5,0,1.4,0,2.5,0c-0.3,4.1-0.5,8.5-0.8,13.4c-0.2,4.8-0.4,7.9-0.4,9.3c0,2,0.3,3.7,0.8,4.9
			c0.5,1.2,1.5,2.2,2.7,2.8c1.3,0.7,2.7,1,4.3,1c1.4,0,2.8-0.3,4.1-0.9c1.1-0.5,2-1.3,2.8-2.2c0.8-1,1.5-2.3,2.1-3.9
			c0.4-1.2,0.7-2.7,0.9-4.5c0.1-1.3,0.3-3.7,0.4-7.2c0.2-4.2,0.3-8.5,0.3-12.8l2.7,0c0.6,0,1.4,0,2.4,0c-0.3,4.2-0.6,10.6-0.9,19.1
			C1074.9,214.4,1074.8,219.8,1074.8,226z"/>
		<path class="st0" d="M1108.9,226.1c-1.1,0-1.9-0.1-2.3-0.1c-0.5,0-1.3,0-2.5,0l0.3-7.5c-0.6,1.3-1.1,2.3-1.6,3
			c-0.4,0.7-1,1.4-1.6,2c-0.6,0.6-1.3,1.2-2.1,1.7c-0.8,0.5-1.7,0.9-2.6,1.2c-1,0.3-2,0.4-3.1,0.4c-1.8,0-3.6-0.4-5.2-1.2
			c-1.6-0.8-3-2-4.1-3.5c-1.1-1.5-1.9-3.3-2.4-5.3c-0.5-2-0.7-4.1-0.7-6.3c0-2.9,0.5-5.8,1.4-8.7c0.9-2.8,2.3-5.2,4-7
			c1.7-1.9,3.6-3.1,5.8-3.9c2.2-0.7,4.4-1.1,6.9-1.1c1.7,0,3.7,0.2,6,0.7c0.1-2.5,0.1-4.6,0.1-6.3c0-2.4,0-4.4,0-5.9l2.6,0
			c0.6,0,1.5,0,2.6,0l-0.8,19.7l-0.6,22.6V226.1z M1104.8,194.9c-1.1-0.4-2.1-0.7-2.9-0.8c-0.8-0.1-1.6-0.2-2.4-0.2
			c-1.8,0-3.6,0.3-5.2,1c-1.7,0.6-3.1,1.7-4.4,3.2c-1.3,1.5-2.2,3.3-2.9,5.6c-0.7,2.3-1,4.5-1,6.6c0,2.2,0.3,4.2,1,6.1
			c0.6,1.9,1.7,3.3,3,4.4c1.4,1.1,3,1.6,4.8,1.6c1.1,0,2.1-0.2,3-0.5c0.9-0.4,1.7-0.9,2.4-1.6s1.4-1.6,2.1-2.8s1.2-2.6,1.5-4.1
			c0.3-1.4,0.6-3.2,0.7-5.6c0.1-1.1,0.2-3.3,0.3-6.6L1104.8,194.9z"/>
		<g>
			<path class="st0" d="M489.7,270.6c-4.3-1.6-6.9-2.2-9.7-2.2c-9.5,0-16,8.5-16,21.2c0,11.3,5.5,18.5,14.2,18.5
				c3.2,0,6.1-0.7,10.9-2.5c-0.4,2.2-0.9,7.1-1.2,9.6c-4.3,1-7.8,1.5-10.9,1.5c-6,0-11.1-2.1-14.9-6c-4.8-4.8-7.2-11.9-7.2-21.3
				c0-18.2,9.4-30,23.9-30c3.2,0,6.3,0.5,10.5,1.6l0.1,1.5l0.1,3.2l0.2,3.3L489.7,270.6z"/>
			<path class="st0" d="M539.5,287c0,18.4-9,29.8-23.4,29.8c-7,0-12.8-2.6-16.8-7.6c-3.9-4.7-5.8-11.3-5.8-20.1
				c0-8.5,2.5-16.7,6.7-21.6c4.3-5.1,10.5-7.9,17.3-7.9C530.8,259.6,539.5,270.3,539.5,287z M502.5,288.9c0,11.8,5.3,19.2,13.9,19.2
				c8.4,0,14.1-8.3,14.1-20.6c0-11.8-5.2-19.3-13.4-19.3C508.4,268.2,502.5,276.7,502.5,288.9z"/>
			<path class="st0" d="M544.2,260.6c3.3,0.1,3.9,0.1,5.6,0.1c1.6,0,2.1,0,5.5-0.1c3.3,8,3.3,8,12,26.8c3.3,7.2,4.1,9.1,6.8,15.2
				c0.6-16.4,1-31.7,1.2-42.1c2.6,0.1,3,0.1,4,0.1c0.7,0,1.1,0,4.3-0.1c-1,18-1.6,34.1-2,55.2c-3.3-0.1-4.1-0.1-5.2-0.1
				c-0.7,0-1.6,0-5.7,0.1c-2-4.9-2.2-5.4-7.7-16.9c-4.4-9.3-9.3-20-11.2-24.5c-0.7,18.5-0.9,29.4-1.1,41.4c-3.2-0.1-3.4-0.1-4-0.1
				c-0.3,0-0.9,0-4.4,0.1C543,306.7,544.2,273.5,544.2,260.6z"/>
			<path class="st0" d="M587.1,304.6c4.3,2.6,7.4,3.6,10.6,3.6c4,0,6.7-2.6,6.7-6.3c0-3.2-0.4-3.9-9.5-14.4
				c-4.5-5.3-6.1-8.9-6.1-13.7c0-8.7,5.5-14.2,14-14.2c2.9,0,5.7,0.4,9.6,1.4c0.1,3.4,0.2,5.5,0.6,9.7c-3.4-1.7-5.9-2.5-8.6-2.5
				c-3.8,0-6.6,2.6-6.6,6c0,2.1,0.8,4,2.6,6.2c1.3,1.7,1.3,1.7,5.8,6.6c5.3,5.9,7.4,9.9,7.4,14.9c0,9.1-5.6,14.8-14.5,14.8
				c-3.1,0-5.8-0.5-11.3-2.2C587.6,309.7,587.5,307.9,587.1,304.6z"/>
			<path class="st0" d="M631.4,307.4c6,0,13.1-0.2,17.2-0.5c-0.1,2.5-0.4,6.9-0.4,8.9c-7.7-0.2-9.7-0.2-13.9-0.2
				c-4,0-5.8,0-15.7,0.2c1-13.8,1.9-40.3,1.9-55.2c7.3,0.1,9.4,0.1,14.6,0.1c5.3,0,7.2,0,14.9-0.1l-0.1,1.3c-0.2,5-0.2,6-0.3,7.5
				c-3.8-0.3-6.4-0.4-12.7-0.4c-2.9,0-4.1,0-7.5,0.2l-0.5,14.4c4.8,0.1,5.1,0.1,7,0.1c2.9,0,4.1,0,10.8-0.2
				c-0.2,3.3-0.2,4.4-0.4,8.9l-2.3-0.1l-6.6-0.1c-2.7,0-4.7,0.1-8.9,0.2l-0.5,15.2H631.4z"/>
			<path class="st0" d="M649.7,305.2c4.2,2,6.3,2.6,8.6,2.6c3.3,0,5.7-1.7,6.8-5.1c1-2.8,1.1-4.9,1.6-25.8c0.1-4.9,0.1-5.9,0.2-16.3
				c3.2,0.1,3.6,0.1,4.6,0.1c1,0,1.3,0,4.7-0.1c-0.9,16.8-1,21-1.4,37.8c-0.2,8.2-1.2,11.8-3.8,14.5c-2.6,2.6-6.1,3.9-10.3,3.9
				c-2.9,0-6-0.5-10.5-1.8C650.1,311.1,650,309.3,649.7,305.2z"/>
			<path class="st0" d="M694.3,307.4c6,0,13.1-0.2,17.2-0.5c-0.1,2.5-0.4,6.9-0.4,8.9c-7.7-0.2-9.7-0.2-13.9-0.2
				c-4,0-5.8,0-15.7,0.2c1-13.8,1.9-40.3,1.9-55.2c7.3,0.1,9.4,0.1,14.6,0.1c5.3,0,7.2,0,14.9-0.1l-0.1,1.3c-0.2,5-0.2,6-0.3,7.5
				c-3.8-0.3-6.4-0.4-12.7-0.4c-2.9,0-4.1,0-7.5,0.2l-0.5,14.4c4.8,0.1,5.1,0.1,7,0.1c2.9,0,4.1,0,10.8-0.2
				c-0.2,3.3-0.2,4.4-0.4,8.9l-2.3-0.1l-6.6-0.1c-2.7,0-4.7,0.1-8.9,0.2l-0.5,15.2H694.3z"/>
			<path class="st0" d="M730.8,285.3c1.7,0.4,2.5,0.5,3.6,0.5c5.5,0,9.1-3.9,9.1-9.9c0-5-2.6-7.2-8.1-7.2c-0.7,0-0.9,0-3.5,0.1
				c-0.7,0.1-1,0.1-2.8,0.1c-0.5,11.7-1,34.2-1.1,47c-3.5-0.1-3.8-0.1-4.6-0.1c-1,0-1.3,0-4.5,0.1c1-13.6,1.8-35.2,1.8-55.2
				c4.4,0.1,4.4,0.1,6.3,0.1c1.5,0,1.5,0,5.7-0.2c1.5-0.1,3.2-0.1,4.4-0.1c5.6,0,8.4,0.8,11,3.1c2.7,2.4,4,6,4,11
				c0,5.2-1.8,9.9-4.7,12.7c-1.3,1.3-2.5,1.8-6.5,3.3c1.8,4.8,3.1,8.1,5,12.7c1.5,3.5,2.9,7,4.3,10.2c0,0.1,0.5,1.2,0.9,2.5
				c-3.3-0.1-3.8-0.1-4.9-0.1c-1.1,0-1.5,0-4.9,0.1c-0.2-0.9-0.5-1.7-0.8-2.6l-1.6-5.5c-0.2-0.8-1.7-5.1-3.3-9.4
				c-1.3-3.5-2.7-7.2-3.8-10.4L730.8,285.3z"/>
			<path class="st0" d="M757.7,265.6c0-0.7,0-2.9-0.1-5.1c3.8,0.1,3.9,0.1,4.8,0.1c0.5,0,1,0,4.7-0.1c-0.8,13.7-1.3,33-1.5,55.2
				c-3.7-0.1-3.9-0.1-4.6-0.1c-0.8,0-1.2,0-5,0.1C757.1,296.6,757.7,276.3,757.7,265.6z M761.9,246.1c2.9,0.1,3.6,0.1,4.6,0.1
				c0.9,0,1.6,0,5-0.1c-2.8,4.1-3.4,5.1-6,8.9c-1.5-0.2-2.3-0.2-3.2-0.2c-1,0-1.8,0-3.4,0.2C759.8,252.1,760.8,249.1,761.9,246.1z"
				/>
			<path class="st0" d="M784,296.2c-1.9,5.3-4.8,13.6-6.8,19.6c-3.8-0.1-4.1-0.1-5-0.1c-1,0-1.4,0-5,0.1c2.7-6.5,3.4-8.3,11.7-30.1
				c6.3-16.5,7.3-19,9.4-25.2c3.6,0.1,4.2,0.1,5.9,0.1c1.8,0,2.3,0,5.1-0.1c0.5,2.2,1.1,4.5,1.7,6.7c1.5,6,4.3,16.1,8.1,30.6
				c1.3,4.6,2.6,9.4,3.8,14.2l1.1,3.7c-3.5-0.1-3.9-0.1-4.7-0.1c-1.1,0-1.5,0-4.9,0.1c-0.7-3.6-3-12.9-4.9-19.6H784z M798,287.8
				c-1.5-5.9-3-12.2-4.7-18.7c-2.6,7.3-3.7,10.4-6.7,18.7H798z"/>
			<path class="st0" d="M837.3,315.7c-1.1,0-1.7,0-6.3,0.1c1-15.5,1.8-39.5,1.8-52.7v-2.5c4.1,0.1,4.1,0.1,5.9,0.1
				c1.6,0,1.6,0,7.4-0.2c1.8-0.1,3.6-0.1,4.7-0.1c7.5,0,11.6,1.6,14.9,5.8c3.5,4.4,5.4,11.3,5.4,19.5c0,9.2-2.4,17.6-6.4,22.9
				c-4,5.2-9,7.2-18,7.2c-1.4,0-3.2,0-5.2-0.1H837.3z M840.1,307.2c1.9,0.1,3.3,0.2,4.9,0.2c7.2,0,10.6-1.5,13.5-6
				c2.4-3.7,3.7-9.3,3.7-15.5c0-5.3-1-9.6-2.9-12.6c-2.1-3.3-4.9-4.6-10.2-4.6c-2.2,0-4.1,0.1-7.7,0.2L840.1,307.2z"/>
			<path class="st0" d="M888.3,307.4c6,0,13.1-0.2,17.2-0.5c-0.1,2.5-0.4,6.9-0.4,8.9c-7.7-0.2-9.7-0.2-13.9-0.2
				c-4,0-5.8,0-15.7,0.2c1-13.8,1.9-40.3,1.9-55.2c7.3,0.1,9.4,0.1,14.6,0.1c5.3,0,7.2,0,14.9-0.1l-0.1,1.3c-0.2,5-0.2,6-0.3,7.5
				c-3.8-0.3-6.4-0.4-12.7-0.4c-2.9,0-4.1,0-7.5,0.2l-0.5,14.4c4.8,0.1,5.1,0.1,7,0.1c2.9,0,4.1,0,10.8-0.2
				c-0.2,3.3-0.2,4.4-0.4,8.9l-2.3-0.1l-6.6-0.1c-2.7,0-4.7,0.1-8.9,0.2l-0.5,15.2H888.3z"/>
			<path class="st0" d="M922.2,304.6c4.3,2.6,7.4,3.6,10.6,3.6c4,0,6.7-2.6,6.7-6.3c0-3.2-0.4-3.9-9.5-14.4
				c-4.5-5.3-6.1-8.9-6.1-13.7c0-8.7,5.5-14.2,14-14.2c2.9,0,5.7,0.4,9.6,1.4c0.1,3.4,0.2,5.5,0.6,9.7c-3.4-1.7-5.9-2.5-8.6-2.5
				c-3.8,0-6.6,2.6-6.6,6c0,2.1,0.8,4,2.6,6.2c1.3,1.7,1.3,1.7,5.8,6.6c5.3,5.9,7.4,9.9,7.4,14.9c0,9.1-5.6,14.8-14.5,14.8
				c-3.1,0-5.8-0.5-11.3-2.2C922.6,309.7,922.5,307.9,922.2,304.6z"/>
			<path class="st0" d="M965.1,296.2c-1.9,5.3-4.8,13.6-6.8,19.6c-3.8-0.1-4.1-0.1-5-0.1c-1,0-1.4,0-5,0.1
				c2.7-6.5,3.4-8.3,11.7-30.1c6.3-16.5,7.3-19,9.4-25.2c3.6,0.1,4.2,0.1,5.9,0.1c1.8,0,2.3,0,5.1-0.1c0.5,2.2,1.1,4.5,1.7,6.7
				c1.5,6,4.3,16.1,8.1,30.6c1.3,4.6,2.6,9.4,3.8,14.2l1.1,3.7c-3.5-0.1-3.9-0.1-4.7-0.1c-1.1,0-1.5,0-4.9,0.1
				c-0.7-3.6-3-12.9-4.9-19.6H965.1z M979,287.8c-1.5-5.9-3-12.2-4.7-18.7c-2.6,7.3-3.7,10.4-6.7,18.7H979z"/>
			<path class="st0" d="M1000,260.6c2.9,0.1,3.4,0.1,4.7,0.1c1.3,0,1.8,0,4.6-0.1c-0.7,16.1-1.4,34.1-1.6,46.7
				c3.8,0.1,6.1,0.1,7.5,0.1c4.8,0,8.3-0.1,11.5-0.3c-0.2,2.6-0.3,5.5-0.5,8.8c-6.9-0.1-8.4-0.1-13.6-0.1c-5.2,0-6.6,0-14.7,0.1
				C999,301.2,999.9,278.9,1000,260.6z"/>
			<path class="st0" d="M1035.3,260.7c1.2,0,1.5,0,4.5-0.1c-1.3,25.1-1.5,30-1.5,33.9c0,5.4,0.7,8.4,2.6,10.6c1.5,1.8,4.1,2.9,7,2.9
				c4.1,0,7.1-2,8.6-5.9c1.2-2.9,1.2-3,2-20.1c0.4-9.1,0.5-11.3,0.7-21.4c3.2,0.1,3.6,0.1,4.6,0.1c0.5,0,0.9,0,4.7-0.1
				c-0.2,4-0.4,8-0.6,12.3c-0.6,13.7-0.7,15.6-0.8,18.8c-0.2,11.3-1.3,15.9-4.6,19.5c-3.3,3.6-8.4,5.5-14.9,5.5
				c-5.3,0-9.5-1.3-13-4.1c-3.6-3-5.3-7.3-5.3-13.7c0-2.6,0.2-7.1,0.5-12.3c0.4-7.5,0.8-21.3,0.9-26.2
				C1033.8,260.7,1034.2,260.7,1035.3,260.7z"/>
			<path class="st0" d="M1079.6,315.7c-1.1,0-1.7,0-6.3,0.1c1-15.5,1.8-39.5,1.8-52.7v-2.5c4.1,0.1,4.1,0.1,5.9,0.1
				c1.6,0,1.6,0,7.4-0.2c1.8-0.1,3.6-0.1,4.7-0.1c7.5,0,11.6,1.6,14.9,5.8c3.5,4.4,5.4,11.3,5.4,19.5c0,9.2-2.4,17.6-6.4,22.9
				c-4,5.2-9,7.2-18,7.2c-1.4,0-3.2,0-5.2-0.1H1079.6z M1082.5,307.2c1.9,0.1,3.3,0.2,4.9,0.2c7.2,0,10.6-1.5,13.5-6
				c2.4-3.7,3.7-9.3,3.7-15.5c0-5.3-1-9.6-2.9-12.6c-2.1-3.3-4.9-4.6-10.2-4.6c-2.2,0-4.1,0.1-7.7,0.2L1082.5,307.2z"/>
		</g>
	</g>
</g>
</svg>
