<svg id="Livello_1" data-name="Livello 1" xmlns="http://www.w3.org/2000/svg" viewBox="0 0 130.99 79.85"><defs><style>.cls-1{fill:#1b75bc;}.cls-2{fill:#fff;}</style></defs><title>IVA2</title><path class="cls-1" d="M18.68,22.14,33.06,15.3,64.37,81.12H46.74Z" transform="translate(-12.32 -5.5)"/><path class="cls-1" d="M53.56,10.57,76.78,59.23,99.7,10.57h9.08L77.5,81.12H71.4L37.77,10.57Z" transform="translate(-12.32 -5.5)"/><path class="cls-1" d="M110.7,10.57l32.61,70.55H127.72L119,62.26H90.14L81,81.12H71.27l33.89-70.55ZM119,62.26,105.83,33.51H104L90.14,62.26" transform="translate(-12.32 -5.5)"/><polygon class="cls-1" points="5.26 21.58 1.18 9.01 11.87 1.24 22.57 9.01 18.48 21.58 5.26 21.58"/><path class="cls-2" d="M24.19,8l9.52,6.91L30.07,26.08H18.31L14.67,14.89,24.19,8m0-2.48L23,6.36l-9.52,6.91-1.17.86.45,1.38L16.4,26.7l.45,1.38H31.53L32,26.7l3.64-11.19.45-1.38-1.18-.86L25.36,6.36,24.19,5.5Z" transform="translate(-12.32 -5.5)"/><polygon class="cls-1" points="78.56 68.64 83.8 52.52 100.76 52.52 106 68.64 92.28 78.62 78.56 68.64"/><path class="cls-2" d="M112.35,59l4.8,14.75L104.6,82.88,92.05,73.77,96.85,59h15.5m1.46-2H95.39l-.45,1.38L90.15,73.15l-.45,1.38,1.18.86,12.54,9.11,1.18.86,1.17-.86,12.55-9.11,1.18-.86-.45-1.38L114.26,58.4,113.81,57Z" transform="translate(-12.32 -5.5)"/></svg>
