<?xml version="1.0" encoding="utf-8"?>
<!-- Generator: Adobe Illustrator 23.0.3, SVG Export Plug-In . SVG Version: 6.00 Build 0)  -->
<svg version="1.1" id="Layer_1" xmlns="http://www.w3.org/2000/svg" xmlns:xlink="http://www.w3.org/1999/xlink" x="0px" y="0px"
	 viewBox="0 0 512 512" style="enable-background:new 0 0 512 512;" xml:space="preserve">
<style type="text/css">
	.st0{fill:#000966;}
</style>
<g>
	<g>
		<path class="st0" d="M282.1,142.5c0,31.1-25.3,56.4-56.4,56.4l-35.2,0v-24.7l10.6,10.6l19.9,0L191.1,155
			c0.8-5.4,2.4-10.5,4.7-15.3l43,43c4.8-1.6,9.1-3.9,13-7l-48.2-48.2c3-3.6,6.5-6.8,10.3-9.6l47.4,47.4c2.7-4.3,4.7-9,5.8-14.1
			L226.8,111c6.2-2.4,13-3.7,20-3.7V93.2c-38.9,0-70.5,31.6-70.5,70.5v32.9h-32c-38.1,0-69.1,31-69.1,69.1h14.1
			c0-30.3,24.7-55,55-55h34.3v24.9l-10.8-10.8h-19.9l29.9,29.9c-0.9,5.3-2.6,10.3-5,15l-42.4-42.4c-4.6,1.7-8.9,4.2-12.6,7.4
			l46.9,46.9c-3.1,3.5-6.7,6.6-10.7,9.3l-45.3-45.3c-2.6,4.5-4.3,9.6-5,14.9l36.9,36.9c-5.4,1.7-11.1,2.7-17,2.7v14.1
			c38.1,0,69.1-31,69.1-69.1v-32l32.9,0c38.9,0,70.5-31.6,70.5-70.5H282.1z"/>
	</g>
</g>
<path class="st0" d="M389.6,357.9h10.2c2.9,0,5.8-2.9,5.8-5.8V246.8c0-2.9-2.9-5.8-5.8-5.8h-10.2c-2.9,0-5.8,2.9-5.8,5.8v105.2
	C383.8,355,386.7,357.9,389.6,357.9z M301.9,357.9h10.2c2.9,0,5.8-2.9,5.8-5.8v-90.6c0-2.9-2.9-5.8-5.8-5.8h-10.2
	c-2.9,0-5.8,2.9-5.8,5.8v90.6C296.1,355,299,357.9,301.9,357.9z M345.8,357.9H356c2.9,0,5.8-2.9,5.8-5.8v-61.4
	c0-2.9-2.9-5.8-5.8-5.8h-10.2c-2.9,0-5.8,2.9-5.8,5.8v61.4C339.9,355,342.9,357.9,345.8,357.9z M434.9,379.8H230.3V233.7
	c0-4-3.3-7.3-7.3-7.3h-7.3c-4,0-7.3,3.3-7.3,7.3v153.4c0,8.1,6.5,14.6,14.6,14.6h211.9c4,0,7.3-3.3,7.3-7.3v-7.3
	C442.2,383.1,439,379.8,434.9,379.8z M258.1,357.9h10.2c2.9,0,5.8-2.9,5.8-5.8v-32.1c0-2.9-2.9-5.8-5.8-5.8h-10.2
	c-2.9,0-5.8,2.9-5.8,5.8v32.1C252.3,355,255.2,357.9,258.1,357.9z"/>
</svg>
