<?xml version="1.0" encoding="utf-8"?>
<!-- Generator: Adobe Illustrator 23.0.1, SVG Export Plug-In . SVG Version: 6.00 Build 0)  -->
<svg version="1.1" id="Layer_1" xmlns="http://www.w3.org/2000/svg" xmlns:xlink="http://www.w3.org/1999/xlink" x="0px" y="0px"
     viewBox="0 0 512 512" style="enable-background:new 0 0 512 512;" xml:space="preserve">
<style type="text/css">
	.st0{fill:#000966;}
</style>
    <g>
	<g>
		<path class="st0" d="M409.1,155.47c0,49.37-40.16,89.53-89.53,89.53H263.7v-39.21l16.83,16.83h31.59l-47.46-47.3
			c1.27-8.57,3.81-16.67,7.46-24.29l68.26,68.26c7.62-2.54,14.44-6.19,20.64-11.11l-76.51-76.51c4.76-5.71,10.32-10.79,16.35-15.24
			l75.24,75.24c4.29-6.83,7.46-14.29,9.21-22.38l-63.97-63.81c9.84-3.81,20.64-5.87,31.75-5.87V77.22
			c-61.75,0-111.91,50.16-111.91,111.91v52.22h-50.79c-60.48,0-109.68,49.21-109.68,109.68h22.38c0-48.1,39.21-87.3,87.3-87.3h54.45
			v39.52l-17.14-17.14h-31.59l47.46,47.46c-1.43,8.41-4.13,16.35-7.94,23.81l-67.3-67.3c-7.3,2.7-14.13,6.67-20,11.75l74.45,74.45
			c-4.92,5.56-10.64,10.48-16.98,14.76l-71.91-71.91c-4.13,7.14-6.83,15.24-7.94,23.65l58.57,58.57c-8.57,2.7-17.62,4.29-26.98,4.29
			v22.38c60.48,0,109.68-49.21,109.68-109.68v-50.79h52.22c61.75,0,111.91-50.16,111.91-111.91H409.1V155.47z"/>
	</g>
</g>
</svg>
