<?xml version="1.0" encoding="utf-8"?>
<!-- Generator: Adobe Illustrator 23.0.3, SVG Export Plug-In . SVG Version: 6.00 Build 0)  -->
<svg version="1.1" id="Layer_1" xmlns="http://www.w3.org/2000/svg" xmlns:xlink="http://www.w3.org/1999/xlink" x="0px" y="0px"
	 viewBox="0 0 512 512" style="enable-background:new 0 0 512 512;" xml:space="preserve">
<style type="text/css">
	.st0{fill:#000966;}
</style>
<path class="st0" d="M206.9,287c36.2,0,65.5-29.3,65.5-65.5S243.1,156,206.9,156s-65.5,29.3-65.5,65.5S170.8,287,206.9,287z
	 M145.6,372.9c0,6.8,5.5,12.3,12.3,12.3s12.3-5.5,12.3-12.3s-5.5-12.3-12.3-12.3S145.6,366.1,145.6,372.9z M256,303.7v25.1
	c18.7,3.8,32.7,20.4,32.7,40.1v21.3c0,3.9-2.8,7.3-6.6,8l-16.5,3.3c-2.2,0.5-4.3-1-4.8-3.2l-1.6-8c-0.5-2.2,1-4.4,3.2-4.8l9.9-2
	v-14.6c0-32.1-49.1-33.3-49.1,1v13.7l9.9,2c2.2,0.5,3.6,2.6,3.2,4.8l-1.6,8c-0.5,2.2-2.6,3.6-4.8,3.2l-16-2.1c-4-0.6-7.1-4-7.1-8.1
	V369c0-19.7,14.1-36.3,32.7-40.1v-23.1c-1.1,0.4-2.3,0.6-3.4,1c-9.2,3.2-19.1,5-29.4,5c-10.3,0-20.1-1.8-29.4-5
	c-3.8-1.3-7.6-2.1-11.6-2.7v41.7c11.8,3.5,20.5,14.4,20.5,27.3c0,15.8-12.8,28.6-28.6,28.6S129,388.9,129,373.1
	c0-12.9,8.6-23.8,20.5-27.3v-41.1c-32.5,5.5-57.3,33.5-57.3,67.6V395c0,12.6,10.3,22.9,22.9,22.9h183.3c12.6,0,22.9-10.3,22.9-22.9
	v-22.9C321.5,335.3,292.4,305.5,256,303.7L256,303.7z"/>
<path class="st0" d="M360,82.1c-42,0-76,27.7-76,61.8c0,14.7,6.4,28.2,16.9,38.8c-3.7,15-16.1,28.3-16.3,28.5
	c-0.7,0.7-0.8,1.7-0.4,2.6c0.4,0.9,1.2,1.4,2.2,1.4c19.7,0,34.5-9.4,41.8-15.3c9.7,3.7,20.5,5.8,31.9,5.8c42,0,76-27.7,76-61.8
	S402,82.1,360,82.1z M321.9,153.3c-5.3,0-9.5-4.2-9.5-9.5s4.2-9.5,9.5-9.5s9.5,4.2,9.5,9.5S327.2,153.3,321.9,153.3z M360,153.3
	c-5.3,0-9.5-4.2-9.5-9.5s4.2-9.5,9.5-9.5s9.5,4.2,9.5,9.5S365.2,153.3,360,153.3z M398,153.3c-5.3,0-9.5-4.2-9.5-9.5
	s4.2-9.5,9.5-9.5s9.5,4.2,9.5,9.5S403.2,153.3,398,153.3z"/>
</svg>
